<svg width="560" height="352" viewBox="0 0 560 352" fill="none" xmlns="http://www.w3.org/2000/svg">
<g clip-path="url(#clip0)">
<path opacity="0.1" d="M528.2 199.756C509.447 221.624 516.733 253.57 528.649 279.155C532.639 287.722 537.152 296.785 535.468 305.971C533.41 317.204 522.479 325.418 511.002 329.772C490.081 337.708 465.045 335.816 445.821 324.848C429.208 315.369 417.311 299.954 400.414 290.906C372.138 275.765 336.147 281.483 305.443 291.913C283.72 299.292 259.971 308.888 238.387 301.176C223.198 295.75 212.7 282.543 206.98 268.544C204.218 261.785 202.213 254.47 196.939 249.112C193.804 245.927 189.712 243.667 185.52 241.76C147.245 224.354 98.9022 233.675 61.7249 214.369C36.6167 201.331 20.5425 176.736 13.4254 151.089C6.30822 125.443 7.13721 98.5514 8.94421 72.1394C10.2284 53.3696 12.5324 33.3309 25.6084 18.8444C39.441 3.51972 63.1806 -2.17865 84.6382 0.734098C106.096 3.64685 125.545 14.0283 142.656 26.2559C164.041 41.5377 183.873 60.5673 210.129 66.7576C228.009 70.9733 246.818 68.6673 265.259 67.8688C296.089 66.5338 326.931 69.5026 357.59 72.7534C386.942 75.8655 416.505 79.2907 444.466 88.0481C464.254 94.2454 480.118 105.495 498.802 113.354C510.981 118.477 524.262 119.892 535.794 126.417C549.999 134.454 563.021 148.435 559.382 164.794C555.921 180.348 538.154 188.149 528.2 199.756Z" fill="#D2152E"/>
<path d="M365.994 67.0687C365.994 67.0687 335.85 58.8802 333.858 82.1712C331.866 105.462 341.825 143.824 333.858 156.155C325.891 168.485 297.463 186.3 312.424 187.897C327.385 189.493 334.854 191.776 330.373 199.997C325.891 208.217 302.489 215.981 307.468 221.918C312.447 227.855 314.937 235.162 309.958 242.469C304.979 249.776 287.551 254.342 290.539 259.366C293.526 264.39 304.481 267.13 299.004 272.61C293.526 278.09 277.649 290.556 283.845 290.488" stroke="#535461" stroke-width="3" stroke-miterlimit="10"/>
<path d="M410.03 51.5513H346.459C342.893 51.5513 340.001 54.2032 340.001 57.4744V78.1628C340.001 81.434 342.893 84.0859 346.459 84.0859H410.03C413.597 84.0859 416.488 81.434 416.488 78.1628V57.4744C416.488 54.2032 413.597 51.5513 410.03 51.5513Z" fill="#D2152E"/>
<path opacity="0.1" d="M410.391 79.0926H346.098V79.7026H410.391V79.0926Z" fill="black"/>
<path opacity="0.3" d="M410.391 56.6349H346.098V79.0024H410.391V56.6349Z" fill="black"/>
<path opacity="0.1" d="M361.063 76.4191C365.961 76.4191 369.931 72.7775 369.931 68.2854C369.931 63.7933 365.961 60.1518 361.063 60.1518C356.165 60.1518 352.195 63.7933 352.195 68.2854C352.195 72.7775 356.165 76.4191 361.063 76.4191Z" fill="black"/>
<path opacity="0.1" d="M395.426 76.4191C400.324 76.4191 404.294 72.7775 404.294 68.2854C404.294 63.7933 400.324 60.1518 395.426 60.1518C390.529 60.1518 386.558 63.7933 386.558 68.2854C386.558 72.7775 390.529 76.4191 395.426 76.4191Z" fill="black"/>
<path d="M384.895 84.085H371.593V91.2037H384.895V84.085Z" fill="#D2152E"/>
<path d="M405.957 89.1694H350.532V129.838H405.957V89.1694Z" fill="#D2152E"/>
<path d="M407.066 137.971H349.424V143.055H407.066V137.971Z" fill="#D2152E"/>
<path d="M358.846 155.255V161.355V170.506V175.589V178.64H368.822V175.589V170.506V161.355V155.255V148.138H358.846V155.255Z" fill="#D2152E"/>
<path d="M388.776 148.138V155.255V161.355V170.506V175.589V178.64H398.752V175.589V170.506V161.355V155.255V148.138H388.776Z" fill="#D2152E"/>
<path d="M342.983 98.3201V107.724C340.244 108.162 337.693 109.29 335.613 110.982C333.685 112.62 332.185 114.637 331.226 116.882C330.004 119.764 329.275 122.803 329.066 125.889C328.752 129.925 328.958 133.981 329.679 137.972H318.594C318.132 133.116 318.229 128.228 318.884 123.39C319.407 119.391 320.607 115.491 322.442 111.832C325.653 105.653 330.221 102.302 334.234 100.481C336.953 99.2063 339.934 98.47 342.983 98.3201Z" fill="#D2152E"/>
<path opacity="0.3" d="M368.822 148.138H358.846V155.255H368.822V148.138Z" fill="black"/>
<path opacity="0.3" d="M368.822 161.355H358.846V170.506H368.822V161.355Z" fill="black"/>
<path opacity="0.3" d="M368.822 175.589H358.846V178.639H368.822V175.589Z" fill="black"/>
<path opacity="0.3" d="M398.752 148.138H388.775V155.255H398.752V148.138Z" fill="black"/>
<path opacity="0.3" d="M398.752 161.355H388.775V170.506H398.752V161.355Z" fill="black"/>
<path opacity="0.3" d="M398.752 175.589H388.775V178.639H398.752V175.589Z" fill="black"/>
<path opacity="0.3" d="M342.983 98.3201V107.724C340.245 108.162 337.693 109.29 335.613 110.982L334.234 100.481C336.953 99.2063 339.934 98.47 342.983 98.3201Z" fill="black"/>
<path opacity="0.3" d="M331.226 116.882C330.004 119.764 329.275 122.803 329.066 125.889L318.884 123.39C319.407 119.391 320.607 115.491 322.442 111.832L331.226 116.882Z" fill="black"/>
<path d="M413.507 98.3201V107.724C416.245 108.162 418.796 109.29 420.876 110.982C422.805 112.62 424.305 114.637 425.263 116.882C426.486 119.764 427.214 122.803 427.424 125.889C427.737 129.925 427.532 133.981 426.81 137.972H437.895C438.357 133.116 438.26 128.228 437.605 123.39C437.082 119.391 435.882 115.491 434.048 111.832C430.836 105.653 426.268 102.302 422.255 100.481C419.537 99.2063 416.556 98.47 413.507 98.3201Z" fill="#D2152E"/>
<path opacity="0.3" d="M413.507 98.3201V107.724C416.245 108.162 418.796 109.29 420.876 110.982L422.255 100.481C419.537 99.2063 416.556 98.47 413.507 98.3201Z" fill="black"/>
<path opacity="0.3" d="M425.263 116.882C426.486 119.764 427.214 122.803 427.424 125.889L437.605 123.39C437.082 119.391 435.882 115.491 434.048 111.832L425.263 116.882Z" fill="black"/>
<path opacity="0.1" d="M384.895 84.085H371.593V84.9276H384.895V84.085Z" fill="black"/>
<path opacity="0.1" d="M406.942 96.4155V113.442C406.279 112.786 405.911 111.924 405.911 111.029V98.8265C405.911 97.9323 406.279 97.071 406.942 96.4155Z" fill="black"/>
<path opacity="0.1" d="M350.729 97.5381V110.284C350.663 111.09 350.298 111.851 349.696 112.441V95.3815C350.298 95.9713 350.663 96.7323 350.729 97.5381Z" fill="black"/>
<path opacity="0.1" d="M403.186 129.838H353.304V130.441H403.186V129.838Z" fill="black"/>
<path opacity="0.1" d="M376.581 143.056H352.195V143.523H376.581V143.056Z" fill="black"/>
<path opacity="0.1" d="M403.186 143.056H378.8V143.523H403.186V143.056Z" fill="black"/>
<path d="M358.732 21.4427H354.915V51.5513H358.732V21.4427Z" fill="#D2152E"/>
<path d="M402.502 21.4427H398.685V51.5513H402.502V21.4427Z" fill="#D2152E"/>
<path opacity="0.1" d="M356.696 25.6439C359.086 25.6439 361.022 23.8675 361.022 21.6761C361.022 19.4848 359.086 17.7083 356.696 17.7083C354.307 17.7083 352.37 19.4848 352.37 21.6761C352.37 23.8675 354.307 25.6439 356.696 25.6439Z" fill="black"/>
<path d="M356.696 25.4105C359.086 25.4105 361.022 23.6341 361.022 21.4427C361.022 19.2514 359.086 17.4749 356.696 17.4749C354.307 17.4749 352.37 19.2514 352.37 21.4427C352.37 23.6341 354.307 25.4105 356.696 25.4105Z" fill="#D2152E"/>
<path opacity="0.1" d="M400.72 25.6439C403.109 25.6439 405.046 23.8675 405.046 21.6761C405.046 19.4848 403.109 17.7083 400.72 17.7083C398.331 17.7083 396.394 19.4848 396.394 21.6761C396.394 23.8675 398.331 25.6439 400.72 25.6439Z" fill="black"/>
<path d="M400.72 25.4105C403.109 25.4105 405.046 23.6341 405.046 21.4427C405.046 19.2514 403.109 17.4749 400.72 17.4749C398.331 17.4749 396.394 19.2514 396.394 21.4427C396.394 23.6341 398.331 25.4105 400.72 25.4105Z" fill="#D2152E"/>
<path opacity="0.5" d="M310.705 195.884C309.003 197.447 308.615 199.594 308.01 201.584C306.284 207.267 302.219 212.509 296.554 216.359C292.405 219.179 286.842 222.302 287.826 226.51C288.061 227.515 288.682 228.454 288.845 229.468C289.551 233.856 282.236 236.169 279.405 240.009C277.295 242.87 277.859 246.415 278.486 249.673C279.253 253.662 280.181 257.917 283.749 260.854C284.712 261.646 285.859 262.334 286.531 263.289C288.036 265.43 286.728 268.236 288.096 270.432C289.92 273.359 295.666 273.486 299 271.512C302.334 269.538 303.875 266.293 305.353 263.25C309.346 255.027 314.256 246.776 322.556 240.787C330.513 235.046 342.09 230.591 343.455 222.234C344.041 218.65 342.557 214.723 344.823 211.566C345.893 210.074 347.683 208.968 348.895 207.543C352.505 203.296 349.817 197.152 344.531 194.136C336.549 189.582 317.648 189.508 310.705 195.884Z" fill="#DEE3F3"/>
<path d="M450.608 43.2021L415.438 53.2809L416.775 57.204L451.944 47.1253L450.608 43.2021Z" fill="#D2152E"/>
<path d="M466.266 195.894C466.266 195.894 446.984 192.357 441.842 187.641C436.701 182.925 413.563 174.672 410.992 180.567C408.421 186.462 376.286 206.504 398.138 210.041C419.99 213.578 449.555 214.757 455.982 212.399C462.409 210.041 466.266 195.894 466.266 195.894Z" fill="#A8A8A8"/>
<path opacity="0.2" d="M398.138 207.851C419.99 211.388 449.555 212.567 455.982 210.209C460.877 208.414 464.278 199.786 465.623 195.771C466.03 195.85 466.266 195.894 466.266 195.894C466.266 195.894 462.409 210.041 455.982 212.399C449.555 214.757 419.99 213.578 398.138 210.041C391.83 209.02 390.026 206.623 390.706 203.588C391.245 205.568 393.443 207.091 398.138 207.851Z" fill="black"/>
<path d="M509.085 41.7125C508.741 40.9273 508.193 40.231 507.489 39.6842C502.316 35.3591 493.947 36.6702 487.523 34.0282C486.043 33.4196 484.525 32.5753 482.918 32.8066C480.675 33.1297 478.588 35.4726 476.632 34.4331L476.772 34.8245C476.725 34.8035 476.679 34.7824 476.632 34.7576C477.112 36.0975 477.591 37.4374 478.071 38.7773C478.623 40.3205 479.206 41.9086 480.28 43.1937C478.691 44.4643 477.476 46.0801 476.744 47.8931C476.012 49.7061 475.787 51.6584 476.09 53.5716C476.394 55.4847 477.215 57.2976 478.48 58.8444C479.744 60.3912 481.411 61.6224 483.329 62.4256C483.396 62.5601 483.464 62.6952 483.529 62.8317C483.59 62.8568 483.653 62.8787 483.714 62.903C484.141 63.802 484.459 64.7408 484.664 65.703C482.999 65.9141 480.096 67.6028 477.241 70.0966L471.531 69.9175C467.842 69.8046 464.273 68.6915 461.273 66.7188L444.2 55.4608C442.983 55.5704 441.837 56.0352 440.929 56.787C438.809 54.7609 437.01 52.6442 437.163 51.4044C437.163 51.4044 429.223 37.7748 426.336 44.5896C423.449 51.4044 431.749 58.5437 431.749 58.5437L437.015 64.8004C436.808 65.8972 436.676 67.0049 436.622 68.1168C443.118 74.9316 465.854 81.0974 465.854 81.0974L469.4 81.2548C469.407 81.3145 469.413 81.365 469.419 81.4146C469.202 82.2678 469.095 83.1418 469.102 84.018C469.104 84.1439 469.107 84.2758 469.109 84.4076C469.108 84.494 469.101 84.5809 469.102 84.6671C469.283 95.5383 470.907 128.801 470.907 128.801C471.223 128.672 471.549 128.554 471.881 128.442L471.629 131.397C471.629 131.397 456.471 133.344 445.283 137.238C434.095 141.133 433.734 145.676 433.734 145.676V185.764C430.538 187.268 425.496 189.245 422.908 188.187C420.098 187.039 418.555 188.004 418.277 189.011V189.011C418.22 189.209 418.215 189.416 418.264 189.616L418.268 189.629C418.292 189.718 418.328 189.804 418.375 189.886L418.386 189.904C418.438 189.989 418.502 190.066 418.577 190.134C419.659 191.108 443.118 199.545 448.531 198.247C448.698 198.207 448.862 198.156 449.022 198.096C449.074 198.076 449.12 198.05 449.17 198.028C449.271 197.985 449.372 197.942 449.465 197.892C449.521 197.861 449.571 197.825 449.624 197.792C449.705 197.742 449.788 197.694 449.864 197.639C449.916 197.6 449.964 197.556 450.014 197.515C450.083 197.458 450.155 197.403 450.219 197.341C450.267 197.296 450.309 197.246 450.354 197.199C450.415 197.134 450.478 197.07 450.535 197.001C450.575 196.952 450.612 196.898 450.651 196.846C450.705 196.773 450.761 196.701 450.811 196.624C450.845 196.571 450.876 196.515 450.909 196.46C450.957 196.378 451.006 196.297 451.051 196.212C451.079 196.157 451.104 196.1 451.131 196.044C451.174 195.954 451.217 195.863 451.256 195.77C451.278 195.715 451.299 195.658 451.32 195.601C451.358 195.502 451.395 195.402 451.428 195.3C451.446 195.246 451.461 195.192 451.477 195.138C451.51 195.028 451.542 194.918 451.57 194.805C451.583 194.756 451.594 194.705 451.606 194.654C451.633 194.534 451.66 194.414 451.683 194.292C451.692 194.246 451.699 194.201 451.707 194.155C451.73 194.025 451.752 193.893 451.77 193.76C451.775 193.722 451.779 193.684 451.784 193.646C451.802 193.503 451.818 193.361 451.831 193.217C451.834 193.187 451.836 193.156 451.839 193.126C451.852 192.973 451.862 192.818 451.87 192.664C451.871 192.643 451.872 192.623 451.873 192.602C451.88 192.437 451.885 192.271 451.888 192.106L451.888 192.075C451.88 190.139 451.646 188.209 451.191 186.319L452.501 152.166C459.589 152.267 466.678 152.028 473.739 151.449L474.516 167.743C474.516 167.743 474.516 178.452 478.486 183.319C481.883 187.485 485.809 205.909 486.87 211.137C485.411 213.687 482.622 216.842 477.764 216.744C477.764 216.744 468.623 216.02 469.139 218.326L469.14 218.33C469.154 218.39 469.173 218.449 469.197 218.506L469.203 218.521C469.231 218.588 469.265 218.652 469.302 218.714L469.31 218.727C469.347 218.787 469.389 218.848 469.437 218.911C469.447 218.924 469.456 218.937 469.466 218.95C469.519 219.018 469.577 219.087 469.644 219.159L469.661 219.176C469.721 219.242 469.789 219.309 469.861 219.377C469.881 219.396 469.901 219.415 469.922 219.434C470.003 219.509 470.089 219.586 470.185 219.665C474.877 223.559 502.305 224.208 502.305 224.208L502.305 224.193L502.305 224.183L502.304 224.135L502.304 224.12C502.304 224.096 502.304 224.064 502.303 224.03L502.303 224.017C502.287 222.89 502.124 216.977 500.481 212.526H500.861C500.861 212.526 496.891 179.75 493.643 175.856C493.643 175.856 492.78 158.573 494.728 147.742C494.848 147.702 494.969 147.663 495.087 147.623C504.185 144.506 504.831 136.831 503.894 131.191C505.615 131.699 506.635 132.046 506.635 132.046C506.635 132.046 506.604 131.801 506.545 131.367C506.603 131.386 506.635 131.397 506.635 131.397C506.635 131.397 506.462 130.367 506.176 128.758C505.526 124.336 504.264 116.608 502.922 112.96C502.705 112.158 502.497 111.472 502.305 110.953C501.529 108.76 500.997 106.502 500.716 104.212C500.348 101.244 500.162 98.2597 500.158 95.2729C500.188 91.2815 500.521 87.2968 501.156 83.348C501.707 79.899 502.203 75.9764 502.161 73.2373C502.199 72.2834 502.126 71.3284 501.944 70.3885C501.462 68.3661 499.335 67.0511 497.123 66.2144C496.981 66.1605 496.835 66.1162 496.691 66.0661C496.745 65.2996 496.816 64.431 496.907 63.5152C497.172 63.6836 497.472 63.8008 497.788 63.8595C498.104 63.9182 498.43 63.9173 498.746 63.8568C499.697 63.6659 500.379 62.9381 500.986 62.2536C504.185 58.6504 507.47 54.8946 508.698 50.4186C509.189 48.4195 509.416 46.3734 509.374 44.3246C509.375 44.2126 509.375 44.1003 509.374 43.9878C509.423 43.2197 509.325 42.4497 509.085 41.7125Z" fill="url(#paint0_linear)"/>
<path d="M479.962 59.2771C479.962 59.2771 484.808 65.9442 483.77 69.119C482.731 72.2938 495.193 70.3889 495.193 70.3889C495.193 70.3889 495.539 58.0072 497.962 55.1498C500.385 52.2925 479.962 59.2771 479.962 59.2771Z" fill="#F7C4A7"/>
<path d="M447.944 63.5631C447.944 63.5631 437.906 55.9436 438.252 53.0863C438.252 53.0863 430.637 39.7521 427.867 46.4192C425.098 53.0863 433.06 60.0708 433.06 60.0708L442.752 71.8176L447.944 63.5631Z" fill="#F7C4A7"/>
<path d="M437.733 183.094C437.733 183.094 428.387 188.492 424.579 186.904C420.771 185.317 419.387 187.857 420.425 188.809C421.464 189.762 443.963 198.016 449.155 196.746C454.347 195.476 451.707 185.076 451.707 185.076L437.733 183.094Z" fill="#535461"/>
<path d="M487.231 206.271C487.231 206.271 484.981 215.001 477.193 214.843C477.193 214.843 465.424 213.89 469.924 217.7C474.424 221.51 500.731 222.145 500.731 222.145C500.731 222.145 500.731 209.128 495.885 206.271C491.039 203.413 487.231 206.271 487.231 206.271Z" fill="#535461"/>
<path d="M473.039 144.679L474.078 166.903C474.078 166.903 474.078 177.38 477.885 182.142C481.693 186.904 486.193 210.715 486.193 210.715H499.346C499.346 210.715 495.539 178.65 492.423 174.84C492.423 174.84 491.039 146.584 495.885 140.235L473.039 144.679Z" fill="#575988"/>
<path opacity="0.1" d="M473.039 144.679L474.078 166.903C474.078 166.903 474.078 177.38 477.885 182.142C481.693 186.904 486.193 210.715 486.193 210.715H499.346C499.346 210.715 495.539 178.65 492.423 174.84C492.423 174.84 491.039 146.584 495.885 140.235L473.039 144.679Z" fill="black"/>
<path d="M500.385 124.678C500.385 124.678 508.346 142.14 493.808 147.219C479.27 152.299 452.963 151.664 452.963 151.664L451.578 188.492C451.578 188.492 435.31 190.397 434.963 185.634V145.314C434.963 145.314 435.31 140.87 446.04 137.06C456.771 133.25 471.309 131.345 471.309 131.345L472.001 123.091L500.385 124.678Z" fill="#575988"/>
<path opacity="0.1" d="M487.629 67.1555C490.393 66.8752 493.19 67.2379 495.762 68.2102C497.883 69.0287 499.923 70.3153 500.385 72.2938C500.932 74.637 500.325 79.892 499.629 84.3375C498.514 91.3081 498.373 98.3805 499.207 105.384C499.564 108.3 500.056 110.844 500.731 111.979C502.808 115.471 504.885 131.98 504.885 131.98C504.885 131.98 482.039 124.043 470.616 128.805C470.616 128.805 469.059 96.2636 468.886 85.628C468.752 77.3928 480.135 68.0078 483.943 67.6904C486.174 67.5043 485.411 67.3666 487.629 67.1555Z" fill="black"/>
<path d="M487.629 66.5206C490.393 66.2402 493.19 66.6029 495.762 67.5752C497.883 68.3938 499.923 69.6803 500.385 71.6588C500.932 74.0021 500.325 79.257 499.629 83.7025C498.514 90.6731 498.373 97.7455 499.207 104.749C499.477 106.988 499.987 109.197 500.731 111.344C502.289 115.63 504.885 131.345 504.885 131.345C504.885 131.345 482.039 123.408 470.616 128.17C470.616 128.17 469.059 95.6286 468.886 84.993C468.752 76.7578 480.135 67.3729 483.943 67.0554C486.174 66.8693 485.411 66.7316 487.629 66.5206Z" fill="#E14B5A"/>
<path opacity="0.1" d="M493.808 84.0406L469.232 82.7707C469.232 82.7707 467.668 71.7195 471.215 71.8331L495.539 72.6113C495.539 72.6113 500.731 78.3259 493.808 84.0406Z" fill="black"/>
<path d="M493.808 83.4056L465.77 82.1357C465.77 82.1357 443.963 76.1036 437.733 69.4365C437.733 69.4365 438.079 57.6897 445.002 57.0547L461.377 68.0687C464.239 69.9942 467.668 71.0846 471.215 71.1981L495.539 71.9763C495.539 71.9763 500.731 77.691 493.808 83.4056Z" fill="#E14B5A"/>
<path opacity="0.1" d="M495.02 60.7058C495.431 57.6952 496.919 56.6966 497.962 55.4673C500.385 52.61 479.962 59.5946 479.962 59.5946C481.015 61.0826 481.938 62.6445 482.723 64.2658C484.354 64.9546 486.128 65.3106 487.924 65.3092C490.935 65.3092 492.866 62.3363 495.02 60.7058Z" fill="black"/>
<path d="M487.924 64.9918C494.806 64.9918 500.385 59.8747 500.385 53.5625C500.385 47.2502 494.806 42.1332 487.924 42.1332C481.041 42.1332 475.462 47.2502 475.462 53.5625C475.462 59.8747 481.041 64.9918 487.924 64.9918Z" fill="#F7C4A7"/>
<path opacity="0.1" d="M480.055 45.5513C478.727 44.222 478.09 42.4486 477.488 40.7328L476.108 36.8003C477.984 37.8173 479.985 35.5252 482.137 35.2091C483.678 34.9828 485.134 35.8088 486.554 36.4042C492.715 38.9889 500.742 37.7062 505.703 41.9376C506.381 42.4757 506.906 43.1566 507.234 43.9219C507.465 44.6479 507.559 45.4048 507.512 46.1598C507.552 48.1636 507.334 50.1648 506.863 52.1218C505.685 56.5008 502.535 60.1752 499.467 63.7002C498.884 64.37 498.23 65.0819 497.318 65.2687C495.537 65.6336 494.159 63.8677 493.469 62.3179C492.556 60.2649 491.883 58.1291 491.461 55.9462C491.354 55.0125 491.076 54.1021 490.639 53.2532C489.566 51.5093 486.922 49.859 485.314 48.5081C483.734 47.1803 481.531 47.0301 480.055 45.5513Z" fill="black"/>
<path d="M480.055 45.2338C478.727 43.9045 478.09 42.1311 477.488 40.4154L476.108 36.4828C477.984 37.4998 479.985 35.2077 482.137 34.8916C483.678 34.6653 485.134 35.4913 486.554 36.0867C492.715 38.6714 500.742 37.3887 505.703 41.6202C506.381 42.1583 506.906 42.8392 507.234 43.6044C507.465 44.3304 507.559 45.0873 507.512 45.8424C507.552 47.8462 507.334 49.8473 506.863 51.8043C505.685 56.1833 502.535 59.8577 499.467 63.3827C498.884 64.0525 498.23 64.7645 497.318 64.9513C495.537 65.3161 494.159 63.5502 493.469 62.0004C492.556 59.9475 491.883 57.8117 491.461 55.6287C491.354 54.695 491.076 53.7846 490.639 52.9358C489.566 51.1918 486.922 49.5415 485.314 48.1906C483.734 46.8628 481.531 46.7126 480.055 45.2338Z" fill="#632652"/>
<path d="M491.212 56.896C491.785 56.896 492.25 55.9721 492.25 54.8324C492.25 53.6927 491.785 52.7688 491.212 52.7688C490.638 52.7688 490.174 53.6927 490.174 54.8324C490.174 55.9721 490.638 56.896 491.212 56.896Z" fill="#F7C4A7"/>
<path opacity="0.1" d="M497.443 109.915C497.443 109.915 496.75 111.82 493.289 111.503C489.827 111.185 479.789 110.55 479.789 111.503" fill="black"/>
<path opacity="0.5" d="M469.924 217.382C469.448 217.046 469.097 216.583 468.917 216.058C468.826 216.47 469.104 217.006 469.924 217.7C474.424 221.51 500.731 222.145 500.731 222.145C500.731 222.145 500.731 222.032 500.727 221.827C500.561 221.823 474.41 221.18 469.924 217.382Z" fill="white"/>
<path opacity="0.5" d="M449.155 196.111C443.963 197.381 421.464 189.127 420.425 188.174C420.287 188.045 420.187 187.885 420.137 187.71C420.077 187.9 420.072 188.102 420.123 188.295C420.173 188.487 420.277 188.665 420.425 188.809C421.464 189.762 443.963 198.016 449.155 196.746C451.828 196.093 452.423 193.021 452.374 190.193C452.323 192.83 451.629 195.506 449.155 196.111Z" fill="white"/>
<path d="M251.698 220.443C250.484 214.249 249.739 207.985 249.469 201.696V201.696C249.231 196.517 247.251 191.532 243.801 187.426C240.351 183.32 235.6 180.294 230.201 178.762C228.234 178.207 226.066 177.689 223.675 177.223C202.698 173.137 196.326 176.705 195.602 177.174C194.991 176.149 194.461 175.086 194.014 173.992C193.978 173.881 193.945 173.768 193.911 173.656C198.062 169.595 200.591 164.364 201.086 158.816C204.585 155.562 206.629 151.636 206.629 147.409C206.629 143.774 205.116 140.362 202.467 137.408V131.671C202.467 128.39 201.762 125.141 200.393 122.11C199.024 119.079 197.018 116.325 194.489 114.005C191.959 111.685 188.957 109.845 185.652 108.59C182.347 107.334 178.805 106.688 175.228 106.688H173.019C169.442 106.688 165.9 107.334 162.595 108.59C159.29 109.845 156.287 111.685 153.758 114.005C151.229 116.325 149.222 119.079 147.853 122.11C146.485 125.141 145.78 128.39 145.78 131.671V137.863C143.393 140.568 142.066 143.93 142.014 147.409C142.014 151.547 143.975 155.396 147.34 158.61C147.8 164.361 150.446 169.783 154.816 173.929C154.963 174.867 155.114 175.877 155.264 176.942L117.734 184.222C117.734 184.222 103.265 184.767 93.9492 202.401C86.0628 217.33 70.3642 255.708 65.7325 267.134H65.7325L65.7325 267.134C64.8931 269.205 64.4166 270.391 64.4166 270.391C64.4166 270.391 64.5702 270.249 64.865 270.006C64.5735 270.728 64.4166 271.119 64.4166 271.119C64.4166 271.119 64.6444 270.907 65.0772 270.56C64.4199 275.342 64.3261 283.549 71.1555 284.571C76.8803 285.428 91.6261 285.78 102.769 285.925V285.935H103.542C110.926 286.025 116.545 286.026 116.545 286.026V285.935H236.36V284.808C236.361 283.785 236.137 282.773 235.7 281.832C235.757 281.771 235.813 281.71 235.867 281.648C236.508 282.424 236.934 283.332 237.11 284.292C237.097 284.386 237.078 284.479 237.054 284.571C237.054 284.571 237.078 284.513 237.124 284.403C237.153 284.703 237.129 285.005 237.054 285.298C237.054 285.298 252.426 248.97 252.262 227.278C252.306 224.989 252.118 222.701 251.698 220.443ZM155.878 181.848C155.68 180.812 155.553 179.765 155.498 178.715L155.499 178.686C155.631 179.705 155.759 180.763 155.878 181.848ZM109.31 259.878V268.536L103.393 269.696L109.31 259.878Z" fill="url(#paint1_linear)"/>
<path d="M173.508 110.182H173.508C180.733 110.182 187.661 112.814 192.769 117.499C197.878 122.185 200.747 128.539 200.747 135.165V145.822H146.269V135.165C146.269 128.539 149.139 122.185 154.248 117.499C159.356 112.814 166.284 110.182 173.508 110.182Z" fill="#E14B5A"/>
<path d="M173.699 168.884C190.847 168.884 204.747 160.123 204.747 149.317C204.747 138.51 190.847 129.749 173.699 129.749C156.551 129.749 142.65 138.51 142.65 149.317C142.65 160.123 156.551 168.884 173.699 168.884Z" fill="#E14B5A"/>
<path d="M153.793 168.272C153.793 168.272 160.27 199.37 153.793 207.756C147.317 216.142 173.604 219.462 173.604 219.462L200.842 210.377L204.652 188.014C204.652 188.014 188.08 179.454 191.509 162.158L153.793 168.272Z" fill="#F7C4A7"/>
<path d="M234.177 273.097C234.177 273.097 235.891 279.911 226.558 281.134C221.046 281.877 215.44 281.816 209.949 280.952L207.89 263.838H229.605L234.177 273.097Z" fill="#F7C4A7"/>
<path d="M69.3412 264.376C69.3412 264.376 65.2193 279.736 74.553 281.134C83.8866 282.531 118.173 282.531 118.173 282.531V264.362L102.652 267.402L88.0772 254.578L69.3412 264.376Z" fill="#F7C4A7"/>
<path opacity="0.1" d="M155.794 178.318L119.316 185.394C119.316 185.394 105.411 185.918 96.4584 202.864C87.5057 219.811 68.0765 268.205 68.0765 268.205C68.0765 268.205 84.6485 252.831 104.078 269.253L117.03 247.764L114.173 281.832H214.557V265.759C214.557 265.759 235.51 276.067 233.986 281.832C233.986 281.832 251.916 239.461 248.06 220.203C246.893 214.251 246.177 208.231 245.918 202.187V202.187C245.689 197.21 243.786 192.419 240.471 188.473C237.155 184.527 232.59 181.618 227.4 180.147C225.511 179.613 223.427 179.115 221.129 178.667C199.604 174.474 194.08 178.667 194.08 178.667C194.08 178.667 189.911 191.111 189.985 196.75C190.08 204 178.747 208.805 178.747 208.805C178.747 208.805 161.984 205.136 161.222 202.166C160.46 199.196 154.46 181.812 155.794 178.318Z" fill="black"/>
<path d="M155.794 177.619L119.316 184.695C119.316 184.695 105.411 185.219 96.4584 202.166C87.5058 219.112 68.0765 267.506 68.0765 267.506C68.0765 267.506 84.6485 252.132 104.078 268.555L117.03 247.066L114.173 281.134H214.557V265.061C214.557 265.061 235.51 275.368 233.986 281.134C233.986 281.134 251.916 238.762 248.06 219.505C246.893 213.552 246.177 207.532 245.918 201.488V201.488C245.689 196.511 243.786 191.72 240.471 187.774C237.155 183.828 232.59 180.919 227.4 179.448C225.511 178.915 223.427 178.416 221.129 177.969C199.604 173.776 194.08 177.969 194.08 177.969C194.08 177.969 189.911 190.412 189.985 196.051C190.08 203.301 178.747 208.106 178.747 208.106C178.747 208.106 161.984 204.437 161.222 201.467C160.46 198.497 154.46 181.113 155.794 177.619Z" fill="#575988"/>
<path opacity="0.1" d="M193.074 176.135C191.542 172.155 191.199 167.872 192.08 163.73L154.365 169.845C154.365 169.845 154.909 172.459 155.525 176.376C157.962 178.695 160.888 180.536 164.126 181.786C167.363 183.036 170.844 183.669 174.356 183.646C177.868 183.624 181.339 182.946 184.557 181.655C187.775 180.363 190.673 178.485 193.074 176.135Z" fill="black"/>
<path d="M199.509 158.314C199.509 164.566 196.823 170.566 192.032 175.013C187.242 179.46 180.734 181.997 173.918 182.073C167.102 182.149 160.529 179.758 155.622 175.418C150.715 171.079 147.871 165.14 147.706 158.891C147.7 158.698 147.698 158.506 147.698 158.314C147.697 153.865 149.058 149.505 151.625 145.731C154.193 141.956 157.864 138.918 162.22 136.963C162.998 136.615 163.796 136.302 164.615 136.023C168.879 134.585 173.478 134.194 177.958 134.887C177.961 134.889 177.964 134.89 177.968 134.889C183.706 135.785 188.947 138.429 192.845 142.394C196.743 146.359 199.071 151.413 199.452 156.74C199.49 157.26 199.509 157.785 199.509 158.314Z" fill="#F7C4A7"/>
<g opacity="0.1">
<path opacity="0.1" d="M164.579 136.58C164.59 136.573 164.602 136.566 164.615 136.56C163.796 136.837 162.998 137.151 162.22 137.499C157.864 139.455 154.193 142.493 151.625 146.267C149.058 150.042 147.697 154.402 147.698 158.851C147.698 159.043 147.7 159.235 147.706 159.427C148.511 159.407 149.302 159.233 150.029 158.915C156.346 156.212 160.135 147.94 161.622 142.171C162.156 140.106 162.666 137.779 164.579 136.58Z" fill="black"/>
<path opacity="0.1" d="M184.408 137.248C182.357 136.384 180.192 135.771 177.967 135.426C179.792 135.811 181.422 136.749 182.592 138.09C183.166 138.806 183.641 139.583 184.008 140.405C180.561 139.022 176.827 138.343 173.065 138.415C169.303 138.486 165.603 139.307 162.22 140.819C163.847 144.088 168.889 145.871 172.255 147.065C175.941 148.37 179.67 149.563 183.442 150.645C182.331 149.816 181.221 148.989 180.11 148.164C182.617 148.529 185.125 148.895 187.633 149.261C187.714 147.888 187.536 146.512 187.107 145.194C188.539 146.259 190.459 146.616 192.023 147.521C194.955 149.215 196.174 152.486 197.772 155.306C198.142 156.082 198.72 156.76 199.452 157.276C199.143 153.005 197.582 148.889 194.934 145.364C192.286 141.838 188.649 139.034 184.408 137.248Z" fill="black"/>
</g>
<path d="M164.579 136.044C164.59 136.036 164.602 136.029 164.615 136.023C163.796 136.301 162.998 136.614 162.22 136.963C157.864 138.918 154.193 141.956 151.625 145.731C149.058 149.505 147.697 153.865 147.698 158.314C147.698 158.506 147.7 158.698 147.706 158.891C148.511 158.871 149.302 158.697 150.029 158.379C156.346 155.676 160.135 147.403 161.622 141.635C162.156 139.57 162.666 137.242 164.579 136.044Z" fill="#632652"/>
<path d="M184.408 136.711C182.357 135.847 180.192 135.235 177.967 134.889C179.792 135.274 181.422 136.213 182.592 137.553C183.166 138.269 183.641 139.047 184.008 139.868C180.561 138.486 176.827 137.807 173.065 137.878C169.303 137.95 165.603 138.77 162.22 140.282C163.847 143.551 168.889 145.335 172.255 146.528C175.941 147.833 179.67 149.027 183.442 150.108C182.331 149.28 181.221 148.453 180.11 147.627C182.617 147.992 185.125 148.358 187.633 148.724C187.714 147.351 187.536 145.975 187.107 144.657C188.539 145.722 190.459 146.079 192.023 146.984C194.955 148.679 196.174 151.949 197.772 154.769C198.142 155.545 198.72 156.223 199.452 156.74C199.143 152.468 197.582 148.352 194.934 144.827C192.286 141.302 188.649 138.498 184.408 136.711Z" fill="#632652"/>
<path opacity="0.1" d="M144.746 154.395C144.746 154.395 171.413 123.996 202.271 154.395L199.604 147.582C199.604 147.582 185.128 128.189 174.842 132.382C164.556 136.575 154.46 139.545 154.46 139.545L144.746 154.395Z" fill="black"/>
<path d="M144.746 153.859C144.746 153.859 171.413 123.46 202.271 153.859L199.604 147.045C199.604 147.045 185.128 127.653 174.842 131.846C164.556 136.039 154.46 139.009 154.46 139.009L144.746 153.859Z" fill="#E14B5A"/>
<path opacity="0.1" d="M122.84 219.374C122.84 219.374 117.126 233.351 125.126 245.93C133.126 258.509 118.078 263.75 118.078 263.75" fill="black"/>
<path opacity="0.1" d="M215.414 206.795C215.414 206.795 225.32 218.326 218.843 228.634C212.367 238.942 212.748 263.75 212.748 263.75" fill="black"/>
<path d="M114.078 274.058H224.177C226.602 274.058 228.927 274.942 230.642 276.514C232.356 278.087 233.32 280.22 233.32 282.444H104.935C104.935 280.22 105.898 278.087 107.613 276.514C109.328 274.942 111.653 274.058 114.078 274.058H114.078Z" fill="#535461"/>
<path d="M130.64 216.404H207.615C212.765 216.404 217.704 218.281 221.346 221.621C224.988 224.961 227.034 229.491 227.034 234.215V275.98H111.221V234.215C111.221 229.491 113.267 224.961 116.908 221.621C120.55 218.281 125.489 216.404 130.64 216.404Z" fill="#535461"/>
<path d="M169.032 255.102C172.819 255.102 175.889 252.286 175.889 248.813C175.889 245.339 172.819 242.523 169.032 242.523C165.245 242.523 162.175 245.339 162.175 248.813C162.175 252.286 165.245 255.102 169.032 255.102Z" fill="white"/>
<path opacity="0.1" d="M146.269 140.142C146.269 140.142 172.48 116.116 200.747 139.704" stroke="black" stroke-miterlimit="10"/>
<path d="M207.371 138.612H204.738V152.293H207.371V138.612Z" fill="#6A5C99"/>
<path d="M201.228 147.465C203.633 147.465 205.939 148.341 207.64 149.9C209.34 151.46 210.296 153.575 210.296 155.781V156.318C210.296 158.523 209.34 160.638 207.64 162.198C205.939 163.758 203.633 164.634 201.228 164.634V147.465Z" fill="#FFD037"/>
<path d="M201.521 146.66H201.521C200.39 146.66 199.473 147.501 199.473 148.538V163.561C199.473 164.598 200.39 165.439 201.521 165.439H201.521C202.652 165.439 203.568 164.598 203.568 163.561V148.538C203.568 147.501 202.652 146.66 201.521 146.66Z" fill="#6A5C99"/>
<path d="M139.377 152.562H142.01V138.88H139.377V152.562Z" fill="#6A5C99"/>
<path d="M145.52 164.902C143.115 164.902 140.809 164.026 139.108 162.466C137.408 160.907 136.453 158.791 136.453 156.586V156.049C136.453 153.844 137.408 151.728 139.108 150.169C140.809 148.609 143.115 147.733 145.52 147.733V164.902Z" fill="#FFD037"/>
<path d="M145.227 165.707H145.227C146.358 165.707 147.275 164.866 147.275 163.829V148.806C147.275 147.769 146.358 146.928 145.227 146.928H145.227C144.097 146.928 143.18 147.769 143.18 148.806V163.829C143.18 164.866 144.097 165.707 145.227 165.707Z" fill="#6A5C99"/>
<path d="M204.426 123.988C200.862 117.19 193.099 108.972 176.365 108.316L176.367 108.297L176.166 108.306L176.153 108.306L176.153 108.307L170.224 108.566L170.225 108.592C153.601 109.294 145.875 117.48 142.322 124.256C139.959 128.846 138.706 133.85 138.647 138.926L140.694 138.88L142.741 138.837C142.83 134.313 143.966 129.858 146.074 125.767C150.587 117.266 158.89 112.744 170.753 112.327L170.752 112.323L175.996 112.057L175.996 112.059C187.858 112.476 196.161 116.998 200.674 125.499C202.782 129.59 203.918 134.045 204.008 138.569L206.054 138.612L208.101 138.658C208.043 133.582 206.789 128.578 204.426 123.988Z" fill="#FFD037"/>
<path d="M297.952 282.554H18.7292V351.314H297.952V282.554Z" fill="#D6D6E3"/>
<path opacity="0.1" d="M297.952 287.182H18.7292V296.108H297.952V287.182Z" fill="black"/>
<path d="M316.68 281.563H0V290.488H316.68V281.563Z" fill="#D6D6E3"/>
<path d="M216.847 259.366C216.847 259.366 228.797 279.46 258.672 273.98C288.547 268.5 274.107 324.672 274.107 324.672C274.107 324.672 269.219 351.469 272.659 351.314" stroke="#535461" stroke-width="3" stroke-miterlimit="10"/>
</g>
<defs>
<linearGradient id="paint0_linear" x1="463.803" y1="224.208" x2="463.803" y2="32.7675" gradientUnits="userSpaceOnUse">
<stop stop-color="#808080" stop-opacity="0.25"/>
<stop offset="0.53514" stop-color="#808080" stop-opacity="0.12"/>
<stop offset="1" stop-color="#808080" stop-opacity="0.1"/>
</linearGradient>
<linearGradient id="paint1_linear" x1="66876.4" y1="124149" x2="66876.4" y2="53724.8" gradientUnits="userSpaceOnUse">
<stop stop-color="#808080" stop-opacity="0.25"/>
<stop offset="0.53514" stop-color="#808080" stop-opacity="0.12"/>
<stop offset="1" stop-color="#808080" stop-opacity="0.1"/>
</linearGradient>
<clipPath id="clip0">
<rect width="560" height="352" fill="white"/>
</clipPath>
</defs>
</svg>
